<?xml version="1.0" encoding="utf-8"?>
<!DOCTYPE svg PUBLIC "-//W3C//DTD SVG 1.1//EN" "http://www.w3.org/Graphics/SVG/1.1/DTD/svg11.dtd">
<svg style="width:308px;height:308px;" version="1.1" id="图形" xmlns="http://www.w3.org/2000/svg" xmlns:xlink="http://www.w3.org/1999/xlink" x="0px" y="0px" width="1024px" height="1024px" viewBox="0 0 1024 1024" enable-background="new 0 0 1024 1024" xml:space="preserve">
  <path class="svgpath" data-index="path_0" fill="#272636" d="M839.352583 372.699374c-17.895579-42.308595-43.508933-80.301907-76.131935-112.923886-32.621978-32.621978-70.614268-58.236356-112.923886-76.131935-1.64036-0.693802-3.287883-1.366114-4.935406-2.034333l0 40.992623c33.487695 15.504112 64.332191 36.95568 91.205235 63.828724 59.984163 59.984163 93.018533 139.736555 93.018533 224.566592s-33.034371 164.582429-93.018533 224.566592c-59.983139 59.984163-139.736555 93.018533-224.566592 93.018533s-164.582429-33.035394-224.566592-93.018533c-59.984163-59.984163-93.018533-139.736555-93.018533-224.566592s33.034371-164.582429 93.018533-224.566592c26.872021-26.872021 57.716516-48.324612 91.205235-63.827701L378.638643 181.609221c-1.647523 0.668219-3.295046 1.340531-4.935406 2.034333-42.308595 17.895579-80.301907 43.509956-112.923886 76.131935-32.621978 32.621978-58.236356 70.615291-76.131935 112.923886-18.531052 43.812855-27.927049 90.342588-27.927049 138.296763 0 47.954175 9.395998 94.483908 27.927049 138.296763 17.895579 42.308595 43.509956 80.301907 76.131935 112.924909 32.621978 32.621978 70.615291 58.236356 112.923886 76.131935 43.812855 18.531052 90.342588 27.927049 138.296763 27.927049s94.484931-9.395998 138.296763-27.927049c42.308595-17.895579 80.301907-43.509956 112.923886-76.131935 32.623002-32.623002 58.236356-70.615291 76.131935-112.924909 18.531052-43.812855 27.927049-90.342588 27.927049-138.296763C867.279632 463.041962 857.883635 416.512229 839.352583 372.699374z" />
<path class="svgpath" data-index="path_1" fill="#272636" d="M512 381.1263c10.366092 0 18.847254-8.481162 18.847254-18.847254L530.847254 151.184281c0-10.366092-8.481162-18.847254-18.847254-18.847254-10.366092 0-18.847254 8.481162-18.847254 18.847254l0 211.094766C493.151723 372.645139 501.633908 381.1263 512 381.1263z" />

</svg>
